<svg xmlns="http://www.w3.org/2000/svg" width="33.338" height="30" viewBox="0 0 33.338 30"><defs><style>.a,.b{fill:#c44357;}.a{opacity:0;}</style></defs><g transform="translate(-1.506 -3)"><path class="a" d="M15.063,7h4.031v4.031H15.063Zm0,16.125h4.031v4.031H15.063ZM7,15.063h4.031v4.031H7Zm16.125,0h4.031v4.031H23.125Zm-8.063,0h4.031v4.031H15.063Z" transform="translate(0.922 0.922)"/><path class="a" d="M29.667,3H3V33H33V3Zm0,6.667v20H6.333V6.333H29.667Z" transform="translate(0 0)"/><path class="b" d="M18.669,6C10.384,6,2,8.577,2,13.5v6.668c0,4.924,8.384,7.5,16.669,7.5s16.669-2.577,16.669-7.5V13.5C35.338,8.577,26.953,6,18.669,6ZM5.334,20.169v-2a16.65,16.65,0,0,0,3.334,1.434v3.135C6.481,21.885,5.334,20.865,5.334,20.169Zm20,.247V23.7a31.318,31.318,0,0,1-5,.6V20.964A36.256,36.256,0,0,0,25.337,20.415ZM17,24.3a31.317,31.317,0,0,1-5-.6V20.417a36.776,36.776,0,0,0,5,.55ZM28.67,22.742V19.607A16.555,16.555,0,0,0,32,18.173v2C32,20.865,30.859,21.885,28.67,22.742Zm-10-5.074c-8.63,0-13.335-2.752-13.335-4.167s4.706-4.167,13.335-4.167S32,12.086,32,13.5,27.3,17.668,18.669,17.668Z" transform="translate(-0.494 1.136)"/></g></svg>