<svg xmlns="http://www.w3.org/2000/svg" width="33.338" height="31.671" viewBox="0 0 33.338 31.671"><defs><style>.a,.b{fill:#c44357;}.a{opacity:0;}</style></defs><g transform="translate(-1.331 -2.165)"><path class="a" d="M15.063,7h4.031v4.031H15.063Zm0,16.125h4.031v4.031H15.063ZM7,15.063h4.031v4.031H7Zm16.125,0h4.031v4.031H23.125Zm-8.063,0h4.031v4.031H15.063Z" transform="translate(0.922 0.922)"/><path class="a" d="M29.667,3H3V33H33V3Zm0,6.667v20H6.333V6.333H29.667Z" transform="translate(0 0)"/><g transform="translate(1.331 2.165)"><path class="b" d="M32,3H5.334A3.337,3.337,0,0,0,2,6.334V23a3.337,3.337,0,0,0,3.334,3.334H17v5H12v3.334H25.337V31.337h-5v-5H32A3.337,3.337,0,0,0,35.338,23V6.334A3.337,3.337,0,0,0,32,3ZM5.334,23V6.334H32l0,16.669Z" transform="translate(-2 -3)"/><path class="b" d="M10,17l8.334-5L10,7Z" transform="translate(3.335 -0.332)"/></g></g></svg>