<svg xmlns="http://www.w3.org/2000/svg" width="33.29" height="33.277" viewBox="0 0 33.29 33.277"><defs><style>.a,.b{fill:#c44357;}.a{opacity:0;}</style></defs><g transform="translate(-1.53 -1.095)"><path class="a" d="M15.063,7h4.031v4.031H15.063Zm0,16.125h4.031v4.031H15.063ZM7,15.063h4.031v4.031H7Zm16.125,0h4.031v4.031H23.125Zm-8.063,0h4.031v4.031H15.063Z" transform="translate(0.922 0.922)"/><path class="a" d="M29.667,3H3V33H33V3Zm0,6.667v20H6.333V6.333H29.667Z" transform="translate(0 0)"/><path class="b" d="M35.068,12.743s0,0,0,0,0,0-.005-.007h0a0,0,0,0,1,0,0v0a1.348,1.348,0,0,0-.392-.38L19.394,2.219a1.39,1.39,0,0,0-1.5,0L2.619,12.358A1.317,1.317,0,0,0,2,13.5V23.765a1.315,1.315,0,0,0,.218.747v0l0,0h0c.005.01.012.017.017.025v0h0s0,0,0,0a0,0,0,0,1,0,0,1.372,1.372,0,0,0,.377.358L17.9,35.045a1.325,1.325,0,0,0,1.5,0L34.671,24.907a1.334,1.334,0,0,0,.618-1.142V13.5A1.323,1.323,0,0,0,35.068,12.743Zm-15.1-6.954,11.59,7.689L26.255,17l-6.286-4.227V5.789Zm-2.654,0v6.983L11.031,17l-5.3-3.519ZM4.657,15.954,8.649,18.6,4.657,21.289Zm12.66,15.52-11.6-7.7,5.326-3.584,6.276,4.164Zm1.325-9.423-5.214-3.464,5.214-3.509,5.219,3.509Zm1.329,9.423V24.357l6.278-4.164,5.322,3.584ZM32.634,21.289,28.64,18.6l3.994-2.65Z" transform="translate(-0.47 -0.904)"/></g></svg>