<svg xmlns="http://www.w3.org/2000/svg" width="31.183" height="30.14" viewBox="0 0 31.183 30.14"><defs><style>.a,.b{fill:#c44357;}.a{opacity:0;}</style></defs><g transform="translate(-3 -3)"><path class="a" d="M15.063,7h4.031v4.031H15.063Zm0,16.125h4.031v4.031H15.063ZM7,15.063h4.031v4.031H7Zm16.125,0h4.031v4.031H23.125Zm-8.063,0h4.031v4.031H15.063Z" transform="translate(0.922 0.922)"/><path class="a" d="M29.667,3H3V33H33V3Zm0,6.667v20H6.333V6.333H29.667Z" transform="translate(0 0)"/><g transform="translate(3 3.136)"><path class="b" d="M3,3V31.337A1.665,1.665,0,0,0,4.667,33H33V29.67H6.334V3Z" transform="translate(-3 -3)"/><path class="b" d="M20.628,18.984a1.665,1.665,0,0,0,2.357,0L31.32,10.65,28.963,8.293l-7.156,7.156-3.822-3.822a1.665,1.665,0,0,0-2.357,0L7.293,19.961,9.65,22.318l7.156-7.156Z" transform="translate(-0.137 0.53)"/></g></g></svg>