<svg xmlns="http://www.w3.org/2000/svg" width="33.338" height="33.338" viewBox="0 0 33.338 33.338"><defs><style>.a{fill:#c44357;}</style></defs><path class="a" d="M31.777,12.776A5.832,5.832,0,0,0,26.727,5.36,4.974,4.974,0,0,0,18.669,3.3a4.961,4.961,0,0,0-8.043,2.059A5.832,5.832,0,0,0,5.56,12.776,6.666,6.666,0,0,0,3.954,23.39a6.779,6.779,0,0,0-.287,1.947,6.675,6.675,0,0,0,5.511,6.558,5.823,5.823,0,0,0,9.491,1.679A5.821,5.821,0,0,0,28.154,31.9a6.678,6.678,0,0,0,5.517-6.568,6.779,6.779,0,0,0-.287-1.947,6.666,6.666,0,0,0-1.607-10.613ZM14.5,32a2.5,2.5,0,0,1-2.45-2L11.7,28.67H10.334A3.337,3.337,0,0,1,7,25.337,3.3,3.3,0,0,1,7.422,23.7l.76-1.36-1.307-.85a3.338,3.338,0,0,1,1.262-6.109l2.822-.433L9.194,12.7a2.5,2.5,0,0,1,1.974-4.037,3,3,0,0,1,.523.053l1.977.292V7A1.667,1.667,0,0,1,17,7V29.5A2.5,2.5,0,0,1,14.5,32ZM30.462,21.489l-1.307.85.76,1.36a3.307,3.307,0,0,1,.422,1.637A3.356,3.356,0,0,1,26.92,28.67H25.557l-.27,1.337a2.5,2.5,0,0,1-4.951-.5V7A1.668,1.668,0,0,1,22,5.334a1.687,1.687,0,0,1,1.667,1.75V9.1l1.977-.375a3,3,0,0,1,.523-.053A2.5,2.5,0,0,1,28.144,12.7L26.378,14.95l2.822.433a3.336,3.336,0,0,1,1.262,6.106Z" transform="translate(-2 -2)"/></svg>