<svg xmlns="http://www.w3.org/2000/svg" width="16.681" height="16.684" viewBox="0 0 16.681 16.684"><defs><style>.a{fill:#f5f1e4;}</style></defs><path class="a" d="M8.353,11.229a3,3,0,0,1,4.147,0l.691.691,1.382-1.382-.691-.691a4.885,4.885,0,0,0-6.911,0L4.9,11.92a4.888,4.888,0,0,0,6.912,6.913l.691-.691-1.382-1.382-.691.691A2.933,2.933,0,0,1,6.279,13.3Z" transform="translate(-3.468 -3.578)"/><path class="a" d="M11.937,4.9l-.691.691L12.628,6.97l.691-.691a2.933,2.933,0,0,1,4.148,4.148L15.392,12.5a3,3,0,0,1-4.147,0l-.691-.691L9.172,13.191l.691.691a4.885,4.885,0,0,0,6.911,0l2.074-2.073A4.888,4.888,0,1,0,11.937,4.9Z" transform="translate(-3.596 -3.467)"/></svg>