<svg xmlns="http://www.w3.org/2000/svg" width="31.671" height="27.277" viewBox="0 0 31.671 27.277">
	<defs>
		<style>.a{fill:#c44357;}</style>
	</defs>
	<path class="a" d="M12,18.245a6.522,6.522,0,0,0,6.668-6.668A6.522,6.522,0,0,0,12,4.91a6.522,6.522,0,0,0-6.668,6.668A6.522,6.522,0,0,0,12,18.245Zm0-10a3.189,3.189,0,0,1,3.334,3.334A3.189,3.189,0,0,1,12,14.911a3.189,3.189,0,0,1-3.334-3.334A3.189,3.189,0,0,1,12,8.243Zm1.667,11.668H10.334A8.344,8.344,0,0,0,2,28.246v1.667H5.334V28.246a5.007,5.007,0,0,1,5-5h3.334a5.007,5.007,0,0,1,5,5v1.667H22V28.246A8.344,8.344,0,0,0,13.668,19.912ZM29.277,2.636,26.92,4.993a11.67,11.67,0,0,1,0,16.5l2.357,2.357a15,15,0,0,0,0-21.216Z" transform="translate(-2 -2.636)" />
	<path class="a" d="M16.478,5.464l-2.357,2.36a4.994,4.994,0,0,1,0,7.068l2.357,2.36a8.334,8.334,0,0,0,0-11.788Z" transform="translate(6.083 -0.75)" />
</svg>