<svg xmlns="http://www.w3.org/2000/svg" width="26.671" height="21.663" viewBox="0 0 26.671 21.663"><defs><style>.a{fill:#f5f1e4;}</style></defs><path class="a" d="M25.931,9.418c.018.238.018.474.018.71A15.448,15.448,0,0,1,10.4,25.682,15.446,15.446,0,0,1,2,23.227a11.424,11.424,0,0,0,1.321.068,10.951,10.951,0,0,0,6.787-2.336A5.478,5.478,0,0,1,5,17.169a6.961,6.961,0,0,0,1.033.084,5.817,5.817,0,0,0,1.44-.186A5.465,5.465,0,0,1,3.084,11.7v-.068a5.516,5.516,0,0,0,2.47.694,5.474,5.474,0,0,1-1.694-7.31,15.549,15.549,0,0,0,11.273,5.721A6.212,6.212,0,0,1,15,9.486a5.472,5.472,0,0,1,9.461-3.74,10.8,10.8,0,0,0,3.469-1.321,5.457,5.457,0,0,1-2.4,3.013,10.957,10.957,0,0,0,3.147-.847A11.733,11.733,0,0,1,25.931,9.418Z" transform="translate(-2 -4.019)"/></svg>