<svg xmlns="http://www.w3.org/2000/svg" width="27.073" height="26.405" viewBox="0 0 27.073 26.405"><defs><style>.a{fill:#f5f1e4;fill-rule:evenodd;}</style></defs><path class="a" d="M15.589,2a13.538,13.538,0,0,0-4.279,26.382c.677.122.922-.295.922-.653,0-.322-.011-1.174-.015-2.3-3.766.817-4.562-1.816-4.562-1.816a3.577,3.577,0,0,0-1.5-1.98c-1.228-.84.094-.821.094-.821a2.835,2.835,0,0,1,2.072,1.4,2.882,2.882,0,0,0,3.939,1.125,2.9,2.9,0,0,1,.862-1.81c-3-.341-6.164-1.5-6.164-6.691a5.245,5.245,0,0,1,1.39-3.63,4.869,4.869,0,0,1,.134-3.583S9.614,7.251,12.2,9a12.81,12.81,0,0,1,6.775,0C21.562,7.25,22.7,7.616,22.7,7.616a4.847,4.847,0,0,1,.134,3.583,5.212,5.212,0,0,1,1.39,3.63c0,5.2-3.162,6.345-6.178,6.68a3.243,3.243,0,0,1,.916,2.505c0,1.81-.016,3.271-.016,3.715,0,.362.242.783.932.65A13.538,13.538,0,0,0,15.589,2Z" transform="translate(-2.052 -2)"/></svg>